<svg width="121" height="121" viewBox="0 0 121 121" fill="none" xmlns="http://www.w3.org/2000/svg">
<mask id="mask0" mask-type="alpha" maskUnits="userSpaceOnUse" x="62" y="1" width="59" height="59">
<path d="M62 1H121V60H62V1Z" fill="#C4C4C4"/>
</mask>
<g mask="url(#mask0)">
<circle cx="61" cy="61" r="58" stroke="url(#paint0_linear)" stroke-width="4"/>
</g>
<mask id="mask1" mask-type="alpha" maskUnits="userSpaceOnUse" x="62" y="62" width="59" height="59">
<path d="M121 62V121H62L62 62L121 62Z" fill="#C4C4C4"/>
</mask>
<g mask="url(#mask1)">
<path d="M61 119C28.9675 119 3 93.0325 3 61C3 28.9675 28.9675 3 61 3C93.0325 3 119 28.9675 119 61C119 93.0325 93.0325 119 61 119Z" stroke="url(#paint1_linear)" stroke-width="4"/>
</g>
<mask id="mask2" mask-type="alpha" maskUnits="userSpaceOnUse" x="0" y="0" width="59" height="121">
<path d="M0 0H59V121H0V0Z" fill="#C4C4C4"/>
</mask>
<g mask="url(#mask2)">
<circle cx="60" cy="61" r="58" stroke="url(#paint2_linear)" stroke-width="4"/>
</g>
<defs>
<linearGradient id="paint0_linear" x1="61" y1="1" x2="61" y2="121" gradientUnits="userSpaceOnUse">
<stop stop-color="#BC9CFF"/>
<stop offset="1" stop-color="#8BA4F9"/>
</linearGradient>
<linearGradient id="paint1_linear" x1="121" y1="61" x2="1" y2="61" gradientUnits="userSpaceOnUse">
<stop stop-color="#6FCF97"/>
<stop offset="1" stop-color="#66D2EA"/>
</linearGradient>
<linearGradient id="paint2_linear" x1="60" y1="1" x2="60" y2="121" gradientUnits="userSpaceOnUse">
<stop stop-color="#FFE39C"/>
<stop offset="1" stop-color="#FFBA9C"/>
</linearGradient>
</defs>
</svg>
